<?xml version="1.0" standalone="no"?>
<!DOCTYPE svg PUBLIC "-//W3C//DTD SVG 20010904//EN"
 "http://www.w3.org/TR/2001/REC-SVG-20010904/DTD/svg10.dtd">
<svg version="1.0" xmlns="http://www.w3.org/2000/svg"
 width="1868.000000pt" height="844.000000pt" viewBox="0 0 1868.000000 844.000000"
 preserveAspectRatio="xMidYMid meet">

<g transform="translate(0.000000,844.000000) scale(0.100000,-0.100000)"
fill="#000000" stroke="none">
<path d="M0 4220 l0 -4220 4076 0 c4068 0 4076 0 4071 20 -3 11 -2 20 3 20 4
0 10 -9 13 -20 5 -20 14 -20 390 -20 342 0 386 2 391 16 12 32 6 44 -23 44
-30 0 -71 38 -71 66 0 8 -7 14 -15 14 -8 0 -15 8 -15 18 0 28 -23 53 -53 56
-15 2 -27 -1 -27 -5 0 -5 -4 -9 -10 -9 -5 0 -10 9 -10 20 0 21 -15 27 -25 9
-10 -15 -45 19 -45 44 0 11 7 29 16 39 14 14 14 20 4 33 -7 8 -19 15 -26 15
-19 0 -18 19 1 26 25 10 17 22 -22 34 -49 16 -54 21 -46 48 4 16 17 26 48 34
l43 11 6 86 c7 83 27 151 43 151 19 0 33 -26 33 -62 0 -39 17 -57 43 -44 41
22 60 36 73 54 8 12 21 19 28 16 7 -3 16 2 19 10 4 9 15 16 26 16 20 0 26 13
33 65 1 11 -1 26 -6 33 -5 8 -4 18 3 25 6 6 11 32 11 58 0 29 6 51 15 59 13
10 15 47 14 224 -1 116 -3 205 -6 199 -3 -7 -10 -13 -17 -13 -22 0 -36 -43
-40 -125 -2 -44 -9 -93 -14 -110 -27 -78 -43 -149 -38 -169 3 -11 1 -28 -4
-36 -8 -12 -10 -12 -15 3 -9 23 -9 67 3 252 11 160 23 227 47 255 17 20 14
275 -3 292 -7 7 -12 20 -12 30 0 10 -13 42 -30 71 -18 33 -30 68 -30 91 0 23
-5 39 -15 42 -24 9 -19 44 6 44 19 0 20 4 15 33 -4 17 -10 76 -13 131 -4 81
-3 98 8 94 9 -3 15 -24 17 -57 3 -47 5 -52 24 -49 15 2 24 13 30 35 11 43 38
34 38 -12 0 -27 4 -34 25 -37 31 -6 29 -13 49 196 9 88 18 161 21 164 12 13
17 -14 22 -115 5 -124 9 -145 23 -123 13 21 18 0 22 -93 2 -45 8 -81 15 -85
21 -13 33 -62 33 -136 0 -60 -3 -76 -20 -91 -11 -10 -20 -29 -20 -42 0 -27 39
-126 52 -131 4 -2 8 -8 8 -13 0 -6 -4 -8 -9 -5 -10 6 -31 -37 -31 -64 0 -10 6
-20 13 -23 6 -2 9 -8 5 -12 -14 -15 -35 4 -47 44 -6 23 -15 41 -19 41 -5 0 -9
-91 -10 -203 -1 -111 -3 -236 -3 -277 -1 -41 2 -121 6 -177 7 -90 10 -103 26
-103 10 0 21 4 24 10 3 5 16 8 28 6 20 -3 21 -7 18 -88 l-3 -85 36 -31 c20
-17 36 -35 36 -39 0 -21 57 -84 86 -95 22 -8 34 -19 34 -30 0 -10 -4 -18 -9
-18 -5 0 -10 -51 -13 -112 -4 -113 -17 -158 -45 -158 -7 0 -13 -7 -13 -16 0
-8 5 -12 10 -9 6 3 10 1 10 -5 0 -7 -6 -10 -14 -7 -20 8 -36 -13 -36 -48 0
-27 -20 -83 -50 -136 -6 -11 -4 -24 6 -38 13 -18 25 -21 78 -21 35 0 67 5 74
12 9 9 12 9 12 0 0 -9 1039 -12 4645 -12 l4645 0 0 4220 0 4220 -9340 0 -9340
0 0 -4220z m8105 3562 c44 -24 85 -56 85 -68 0 -4 11 -22 25 -40 19 -24 28
-55 37 -115 24 -170 -32 -294 -161 -359 -39 -19 -56 -22 -130 -18 -99 5 -150
26 -199 83 -55 62 -66 98 -66 225 -1 106 1 120 26 170 54 110 130 153 263 147
58 -3 91 -9 120 -25z m5310 5 c38 -14 40 -17 43 -61 2 -25 -1 -46 -6 -46 -5 0
-30 9 -56 21 -26 11 -77 23 -115 26 -112 9 -171 -22 -171 -93 0 -53 38 -76
163 -97 48 -9 107 -25 130 -36 117 -57 113 -213 -7 -286 -45 -27 -58 -30 -150
-33 -84 -2 -112 2 -166 20 -64 23 -65 24 -68 62 -6 65 -1 67 75 29 62 -31 78
-34 152 -34 70 0 89 4 117 23 50 34 58 81 22 123 -19 21 -43 30 -134 50 -171
36 -211 65 -221 157 -9 90 22 137 122 181 32 14 59 16 135 13 52 -3 113 -11
135 -19z m-8730 -27 l0 -35 -107 -3 -108 -3 0 -264 0 -265 -39 0 c-26 0 -41 5
-45 16 -3 9 -6 128 -6 265 l0 249 -104 0 -103 0 -7 31 c-3 17 -3 35 0 40 3 5
115 8 262 7 l257 -3 0 -35z m163 -82 l3 -118 149 0 150 0 0 120 0 120 34 0
c18 0 38 -6 43 -12 5 -8 8 -136 7 -303 l-1 -290 -42 -3 c-28 -2 -41 1 -42 10
0 7 0 73 1 146 l1 132 -150 0 -150 0 -3 -142 -3 -143 -42 -3 -43 -3 0 299 c0
164 3 302 7 306 4 4 23 6 43 4 l35 -3 3 -117z m762 92 c0 -27 -3 -30 -29 -30
-17 0 -33 -5 -36 -11 -8 -12 -14 -389 -7 -441 4 -35 7 -38 38 -38 31 0 34 -3
34 -30 l0 -30 -120 0 -120 0 0 29 c0 27 3 30 38 33 l37 3 0 240 0 240 -35 0
c-25 0 -35 5 -38 18 -9 43 2 47 123 47 l115 0 0 -30z m325 -75 c28 -55 80
-151 113 -214 34 -63 62 -118 62 -121 0 -4 7 -13 15 -20 13 -11 15 16 17 221
l3 234 38 3 37 3 0 -305 0 -306 -54 0 -54 0 -85 163 c-47 89 -107 204 -134
254 -26 51 -51 93 -55 93 -5 0 -8 -115 -8 -255 l0 -255 -40 0 -40 0 0 305 0
306 66 -3 66 -3 53 -100z m535 -48 l5 -149 110 119 c172 185 170 183 221 183
24 0 44 -3 44 -7 -1 -5 -57 -66 -125 -138 -69 -71 -125 -136 -125 -144 0 -7
35 -52 78 -100 104 -116 182 -207 182 -215 0 -3 -22 -6 -49 -6 -48 0 -51 1
-108 67 -32 36 -71 80 -87 97 -15 17 -40 46 -53 64 -31 39 -37 39 -68 6 -23
-25 -25 -34 -25 -130 l0 -104 -45 0 -45 0 0 298 c0 164 3 302 7 306 4 4 23 6
43 4 l35 -3 5 -148z m1021 141 c3 -49 -3 -508 -7 -528 -13 -62 -26 -80 -55
-80 -28 0 -29 2 -29 44 0 43 1 45 28 43 l27 -2 3 231 c2 225 2 232 -18 237
-23 6 -28 52 -7 60 24 10 57 7 58 -5z m1193 -2 c57 -24 83 -79 77 -162 0 -12
-12 -33 -26 -48 -30 -32 -31 -42 -7 -48 11 -3 32 -22 47 -42 25 -32 28 -45 27
-108 0 -39 -5 -75 -11 -81 -6 -6 -11 -19 -11 -29 0 -10 -19 -29 -47 -45 -45
-26 -57 -28 -179 -31 l-131 -4 -6 174 c-9 223 -9 423 0 431 13 13 232 7 267
-7z m1091 -26 l0 -35 -107 -3 -108 -3 0 -264 0 -265 -45 0 -45 0 0 265 0 264
-107 3 c-104 3 -108 4 -111 26 -8 53 -13 53 265 50 l258 -3 0 -35z m163 -83
l3 -118 147 3 147 3 3 118 3 118 39 -3 c22 -2 40 -6 40 -10 0 -5 0 -141 0
-303 l0 -295 -40 0 c-46 0 -42 -16 -40 168 l1 122 -150 0 -150 0 -3 -142 -3
-143 -42 -3 -43 -3 0 299 c0 164 3 302 7 306 4 4 23 6 43 4 l35 -3 3 -118z
m760 91 c-3 -30 -6 -33 -41 -36 l-37 -3 2 -237 3 -237 38 -3 c34 -3 37 -6 37
-33 l0 -29 -120 0 -120 0 0 30 c0 28 3 30 35 30 l35 0 -2 243 -3 242 -32 3
c-29 3 -33 7 -33 33 l0 29 121 0 120 0 -3 -32z m298 -20 c77 -154 217 -408
225 -408 5 0 9 101 9 231 l0 230 38 -3 37 -3 3 -303 2 -303 -56 3 -56 3 -42
80 c-46 88 -142 269 -189 355 -16 30 -33 59 -38 65 -5 5 -9 -100 -9 -248 l0
-257 -39 0 c-33 0 -40 4 -43 23 -2 12 -2 149 0 305 l3 282 64 0 65 0 26 -52z
m564 -101 l5 -149 115 123 c63 68 127 136 141 151 21 23 35 28 73 28 26 0 46
-4 44 -9 -1 -5 -32 -40 -68 -78 -36 -37 -93 -98 -128 -135 l-63 -66 136 -153
c74 -84 135 -157 135 -161 0 -4 -22 -8 -49 -8 l-50 0 -99 113 c-55 61 -109
121 -122 132 l-22 20 -24 -28 c-25 -30 -26 -36 -24 -159 l1 -78 -45 0 -46 0 0
298 c0 164 3 302 7 306 4 4 23 6 43 4 l35 -3 5 -148z m950 -77 c5 -244 8 -257
67 -295 35 -23 133 -24 167 -2 55 36 61 63 66 302 l5 220 40 0 40 0 0 -225 c0
-220 -1 -226 -25 -275 -38 -75 -92 -109 -183 -113 -128 -7 -200 29 -241 118
-18 40 -21 68 -24 248 -5 249 -4 254 46 250 l37 -3 5 -225z m1230 -325 l0 -55
-50 0 -50 0 0 55 0 55 50 0 50 0 0 -55z m310 -1 l0 -55 -52 3 -53 3 -3 53 -3
52 55 0 56 0 0 -56z m-4835 -545 c4 -6 -2 -13 -14 -16 -26 -7 -27 -19 -3 -28
16 -6 16 -7 0 -19 -12 -9 -18 -27 -18 -55 0 -60 -23 -48 -31 15 -9 74 6 105
53 113 4 0 10 -4 13 -10z m-1681 -8 c7 -11 -17 -21 -50 -21 -13 0 -24 -4 -24
-8 0 -17 25 -32 52 -32 42 0 34 -18 -9 -22 -30 -2 -38 -7 -38 -23 0 -16 8 -21
38 -23 55 -5 45 -22 -13 -22 l-50 0 0 80 0 80 44 0 c25 0 47 -4 50 -9z m906
-1 c0 -5 -4 -10 -10 -10 -5 0 -10 5 -10 10 0 6 5 10 10 10 6 0 10 -4 10 -10z
m461 -9 c21 -16 22 -22 11 -45 -8 -17 -22 -29 -42 -32 -25 -6 -30 -11 -30 -36
0 -19 -4 -28 -12 -26 -13 5 -24 118 -14 144 8 20 60 17 87 -5z m694 9 c3 -5
-1 -10 -10 -10 -9 0 -13 5 -10 10 3 6 8 10 10 10 2 0 7 -4 10 -10z m445 -70
c0 -47 -4 -80 -10 -80 -6 0 -10 33 -10 80 0 47 4 80 10 80 6 0 10 -33 10 -80z
m218 74 c41 -12 26 -33 -20 -27 -46 7 -68 -11 -68 -54 0 -28 41 -57 70 -48 26
8 26 25 0 32 -21 6 -26 18 -12 27 5 3 18 2 30 -1 17 -4 22 -13 22 -38 0 -36
-12 -45 -65 -45 -42 0 -75 32 -75 73 0 65 49 99 118 81z m552 -19 c0 -17 4
-23 14 -19 8 3 24 1 35 -6 17 -9 21 -20 21 -60 0 -28 -4 -50 -10 -50 -5 0 -10
15 -10 33 0 17 -4 38 -9 46 -13 20 -41 6 -42 -21 -2 -45 -4 -51 -16 -55 -10
-4 -13 16 -13 76 0 65 3 81 15 81 9 0 15 -9 15 -25z m-69 -18 c25 -7 25 -27
-1 -27 -13 0 -20 -7 -20 -19 0 -30 11 -51 26 -51 8 0 14 -5 14 -11 0 -6 -12
-9 -27 -7 -25 3 -29 8 -33 47 -7 60 -23 62 -41 4 -18 -56 -37 -67 -45 -24 -8
39 -19 39 -33 1 -18 -52 -38 -35 -56 48 -8 40 11 44 26 5 l11 -28 10 28 c5 15
15 27 22 27 7 0 19 -12 26 -27 l13 -28 6 25 c4 16 15 26 29 28 12 2 27 13 34
25 10 18 13 19 16 6 2 -10 12 -19 23 -22z m-3017 -13 c18 -17 23 -104 6 -104
-5 0 -10 15 -10 33 0 68 -46 78 -52 11 -4 -54 -26 -55 -30 -2 -2 35 -7 43 -23
43 -16 0 -21 -8 -23 -42 -5 -62 -22 -53 -22 12 l0 54 63 4 c34 2 65 4 69 5 4
1 14 -5 22 -14z m140 -6 c31 -43 8 -98 -41 -98 -16 0 -23 -6 -23 -20 0 -11 -7
-20 -15 -20 -12 0 -15 15 -15 74 l0 75 33 4 c17 2 35 5 39 5 4 1 14 -8 22 -20z
m117 9 c45 -34 24 -107 -29 -107 -37 0 -52 17 -52 56 0 23 7 38 22 48 27 19
38 19 59 3z m300 3 c11 -6 19 -21 19 -35 0 -22 -4 -25 -35 -25 -19 0 -35 -4
-35 -9 0 -14 34 -23 55 -15 13 5 16 3 13 -7 -2 -8 -21 -15 -41 -17 -29 -3 -39
2 -52 21 -28 43 -6 81 53 96 2 1 12 -4 23 -9z m159 -56 c0 -30 -4 -54 -10 -54
-5 0 -10 20 -10 43 0 24 -3 46 -6 50 -11 11 -65 -15 -63 -32 3 -35 -1 -61 -11
-61 -5 0 -10 24 -10 54 0 52 1 55 28 58 15 2 39 1 55 -1 26 -3 27 -6 27 -57z
m256 54 c15 -11 10 -114 -6 -133 -14 -17 -80 -21 -80 -5 0 6 11 10 24 10 14 0
28 5 31 10 3 6 -4 10 -17 10 -33 0 -48 18 -48 56 0 49 58 80 96 52z m422 -10
c17 -14 15 -63 -4 -82 -18 -19 -65 -21 -82 -4 -7 7 -12 27 -12 44 0 54 53 77
98 42z m193 1 c28 -28 20 -43 -25 -47 -46 -4 -43 -28 3 -26 21 1 31 -3 31 -12
0 -20 -64 -18 -84 2 -36 35 -7 98 47 103 4 1 16 -8 28 -20z m110 11 c5 0 9 -4
9 -10 0 -5 -11 -10 -25 -10 -33 0 -32 -16 0 -24 55 -14 38 -66 -21 -66 -25 0
-34 4 -34 16 0 12 6 15 24 10 36 -9 41 10 6 23 -52 17 -34 80 18 65 8 -2 18
-4 23 -4z m117 -8 c2 -7 -7 -12 -22 -12 -33 0 -34 -16 -1 -24 55 -14 38 -66
-21 -66 -23 0 -34 5 -34 14 0 9 9 14 24 13 32 -3 35 16 4 23 -16 4 -24 14 -26
32 -3 22 1 27 25 31 37 5 46 3 51 -11z m170 2 c42 -29 20 -104 -30 -104 -54 0
-79 74 -36 104 12 9 27 16 33 16 6 0 21 -7 33 -16z m133 6 c15 -8 19 -22 19
-61 0 -63 -23 -63 -28 0 -3 37 -6 42 -25 39 -18 -2 -23 -11 -25 -45 -2 -24 -7
-43 -13 -43 -10 0 -10 1 -14 45 -4 47 4 63 33 68 15 2 28 5 30 6 2 0 12 -4 23
-9z m137 -5 c2 -2 4 -25 5 -52 l2 -48 -41 -3 c-68 -5 -90 51 -24 64 41 9 48
24 11 24 -34 0 -50 16 -24 23 17 5 64 -1 71 -8z m407 5 c3 -6 -5 -14 -19 -20
-22 -8 -26 -16 -26 -50 0 -29 -4 -40 -15 -40 -11 0 -15 13 -15 54 0 52 1 55
28 59 15 2 30 5 34 6 4 0 10 -4 13 -9z m93 -6 c29 -20 31 -79 3 -94 -32 -17
-60 -11 -77 15 -20 31 -12 68 18 83 31 14 30 14 56 -4z m-2421 -21 l10 -28 11
28 c14 33 39 36 44 5 2 -13 8 -23 13 -23 6 0 11 10 13 23 2 12 10 22 18 22 14
0 14 -4 -6 -79 -9 -36 -29 -37 -41 -2 -14 39 -26 39 -34 0 -13 -58 -48 -16
-65 79 0 1 6 2 13 2 7 0 18 -12 24 -27z m512 13 c15 -18 10 -88 -6 -93 -8 -3
-13 11 -15 39 -2 35 -7 43 -23 43 -16 0 -21 -8 -25 -38 -3 -21 -9 -39 -15 -40
-11 -2 -20 67 -11 89 7 19 80 18 95 0z m441 6 c0 -4 -10 -12 -22 -17 -17 -7
-24 -20 -26 -47 -5 -58 -22 -45 -22 17 l0 55 35 0 c19 0 35 -3 35 -8z m590
-48 c0 -40 -4 -55 -12 -52 -14 5 -23 70 -14 94 12 32 26 11 26 -42z m-732
-386 c2 -43 4 -78 6 -78 2 0 17 7 32 15 37 19 97 19 133 0 93 -48 94 -259 1
-325 -33 -23 -53 -25 -175 -18 l-60 3 -3 230 c-1 126 0 236 3 243 3 8 16 12
32 10 28 -3 28 -4 31 -80z m-1793 54 c41 -14 51 -22 59 -50 5 -18 6 -36 2 -39
-4 -4 -29 5 -56 20 -91 51 -197 30 -234 -48 -24 -50 -31 -127 -16 -180 14 -49
62 -100 106 -111 43 -11 113 2 154 30 43 28 55 22 45 -23 -9 -44 -44 -56 -159
-56 -96 0 -103 1 -139 29 -51 39 -77 94 -84 175 -17 199 132 316 322 253z
m3526 -3 c62 -19 92 -59 96 -126 3 -45 0 -65 -15 -89 -28 -44 -95 -74 -165
-74 l-57 0 0 -86 0 -85 -27 3 -28 3 -3 233 -2 232 81 0 c45 0 99 -5 120 -11z
m860 -19 c5 0 9 -20 9 -45 l0 -44 58 -3 c49 -3 57 -6 57 -23 0 -17 -8 -20 -57
-23 l-58 -3 0 -113 c0 -131 5 -140 72 -134 40 3 43 2 40 -21 -3 -34 -5 -35
-66 -35 -93 -1 -116 40 -116 205 l0 97 -62 0 c-41 -1 -76 -7 -100 -20 l-38
-18 0 -131 0 -130 -27 3 -28 3 -3 173 -2 172 30 0 c20 0 30 -5 30 -15 0 -19
19 -19 44 0 13 10 44 15 88 15 l68 0 0 44 c0 44 11 59 38 50 8 -2 18 -4 23 -4z
m-4022 -104 c95 -60 96 -248 2 -315 -42 -30 -141 -32 -179 -4 -100 74 -95 269
8 324 50 27 121 25 169 -5z m400 3 l28 -21 41 21 c45 23 95 27 137 11 44 -17
56 -63 53 -213 l-3 -132 -27 -3 -28 -3 0 120 c0 117 -9 168 -33 183 -16 10
-76 -1 -104 -20 -22 -14 -23 -21 -23 -143 0 -79 -4 -130 -11 -134 -5 -4 -21
-4 -35 -1 -24 6 -24 7 -24 141 0 133 0 135 -26 151 -24 16 -28 16 -72 -2 l-47
-20 -5 -134 -5 -135 -27 -3 c-16 -2 -28 0 -29 5 0 4 -1 82 -1 173 -2 164 -2
165 21 168 12 2 28 -2 36 -8 10 -9 20 -8 42 4 41 22 108 20 142 -5z m598 1
c38 -23 65 -80 61 -130 l-3 -35 -124 -3 -123 -3 6 -32 c15 -72 99 -107 180
-73 54 23 65 21 63 -11 -6 -68 -174 -83 -251 -22 -39 31 -58 75 -59 140 -1
120 58 189 163 189 37 0 65 -6 87 -20z m984 4 c36 -18 68 -83 69 -136 l0 -38
-125 0 -125 0 0 -26 c0 -16 13 -39 34 -60 28 -28 41 -34 78 -34 24 0 61 9 83
20 22 11 41 20 42 20 2 0 3 -15 3 -33 0 -40 -19 -52 -102 -62 -96 -12 -175 37
-198 124 -22 84 6 174 68 216 44 30 125 34 173 9z m578 5 c46 -16 64 -58 68
-159 4 -126 -4 -190 -26 -190 -9 0 -26 6 -36 14 -16 12 -22 12 -40 0 -57 -37
-143 -24 -179 28 -20 29 -20 97 0 126 22 31 86 62 131 62 78 0 98 16 70 54
-15 21 -74 26 -144 13 -43 -7 -43 -7 -43 22 0 23 5 31 23 34 46 9 145 7 176
-4z m979 -9 c18 -11 37 -32 43 -46 5 -15 8 -86 7 -158 -3 -130 -3 -131 -27
-134 -15 -2 -28 3 -33 12 -8 14 -11 14 -35 -1 -15 -10 -46 -17 -78 -17 -43 -1
-58 4 -79 23 -57 54 -51 148 12 184 18 11 65 23 103 27 39 4 73 10 76 14 3 3
-2 17 -11 30 -20 32 -72 42 -132 27 -51 -13 -64 -9 -64 20 0 27 32 38 115 38
53 1 78 -4 103 -19z m-2130 -712 c25 -25 14 -46 -27 -53 -50 -8 -72 -33 -78
-89 l-5 -45 53 -3 c50 -3 54 -5 54 -28 0 -22 -5 -26 -45 -30 -25 -3 -51 -9
-57 -13 -9 -6 -13 -43 -13 -127 0 -65 -3 -125 -6 -134 -7 -19 -40 -21 -50 -4
-4 6 -6 69 -5 139 l2 128 -38 3 c-28 2 -39 8 -42 22 -4 23 24 46 55 46 24 0
34 17 34 61 0 47 26 97 62 119 37 22 88 26 106 8z m632 -14 c6 -14 10 -65 10
-114 l0 -89 36 24 c46 32 95 32 128 3 23 -21 26 -33 35 -148 5 -69 12 -132 16
-141 7 -20 -19 -43 -40 -35 -24 9 -35 52 -43 165 -7 104 -8 106 -32 108 -29 3
-47 -9 -78 -54 -17 -24 -22 -45 -22 -95 0 -86 -24 -131 -58 -109 -11 6 -13 60
-12 251 0 134 3 247 6 251 11 19 45 8 54 -17z m-235 -78 c2 -11 6 -32 7 -46 3
-22 8 -25 48 -28 49 -4 64 -17 49 -44 -7 -13 -21 -18 -49 -18 l-40 0 0 -129
c0 -105 -3 -131 -16 -142 -11 -9 -20 -10 -32 -2 -14 8 -18 33 -22 139 l-5 129
-39 5 c-49 6 -70 34 -42 55 11 8 30 12 47 8 31 -6 33 -2 29 48 -3 52 54 74 65
25z m-763 -103 c40 -44 48 -67 48 -141 0 -60 -4 -74 -29 -110 -54 -73 -144
-81 -200 -17 -17 20 -34 47 -37 61 -11 44 1 133 23 162 55 75 147 96 195 45z
m1525 1 c39 -30 44 -71 12 -100 -11 -10 -57 -35 -102 -54 -44 -20 -82 -40 -84
-45 -5 -16 51 -45 86 -45 38 0 101 25 101 39 0 6 9 11 19 11 49 0 37 -62 -17
-88 -86 -43 -164 -39 -221 13 -32 30 -35 38 -39 96 -6 117 60 199 161 199 38
0 58 -6 84 -26z m842 -525 c44 -44 50 -59 26 -59 -17 0 -20 -16 -5 -25 12 -7
13 -35 2 -35 -5 0 -14 12 -21 27 -9 20 -15 23 -23 15 -22 -22 -28 -12 -28 53
0 36 2 65 4 65 2 0 22 -19 45 -41z m-2701 -352 c3 -209 -2 -232 -61 -267 -33
-21 -71 -25 -126 -14 -27 6 -32 11 -29 33 3 25 5 26 56 23 89 -6 92 0 92 195
l0 163 -40 0 c-42 0 -58 15 -46 45 5 13 20 15 78 13 l73 -3 3 -188z m332 61
c49 -33 73 -87 73 -162 0 -109 -51 -175 -143 -184 -104 -10 -174 65 -175 188
0 76 22 122 75 157 46 32 124 32 170 1z m1082 -7 l33 -29 0 -149 0 -148 -25 0
-25 0 -5 133 c-5 125 -7 135 -29 153 -13 10 -30 19 -37 19 -22 0 -87 -29 -96
-43 -4 -7 -8 -67 -8 -134 0 -113 -1 -122 -20 -128 -11 -3 -24 -3 -30 0 -6 4
-10 72 -10 176 l0 169 29 0 c16 0 31 -5 33 -12 3 -9 13 -8 39 5 55 27 113 22
151 -12z m380 -2 c39 -31 63 -86 56 -129 -3 -25 -4 -25 -125 -28 l-123 -3 0
-25 c0 -16 13 -39 34 -60 28 -28 42 -34 75 -34 23 0 58 7 78 15 48 20 53 19
53 -14 0 -24 -6 -31 -46 -46 -33 -12 -61 -16 -95 -12 -109 13 -158 63 -166
170 -4 52 -1 69 19 107 35 64 77 90 147 90 48 0 62 -4 93 -31z m-1242 -98 c0
-131 8 -166 40 -176 32 -10 83 2 108 26 20 18 22 29 22 145 l0 125 28 -3 27
-3 0 -170 c0 -165 -1 -170 -21 -173 -11 -2 -26 4 -33 11 -10 13 -17 12 -51 -4
-47 -23 -70 -24 -115 -5 -55 23 -65 56 -65 211 l0 135 30 0 30 0 0 -119z m405
103 c11 -15 14 -15 43 0 17 9 49 16 72 16 38 0 40 -1 40 -31 0 -30 -2 -31 -30
-26 -32 7 -86 -8 -112 -31 -15 -13 -18 -33 -18 -133 0 -68 -4 -120 -10 -124
-6 -3 -19 -3 -30 0 -19 6 -20 15 -20 169 0 89 3 166 7 169 12 13 46 7 58 -9z
m1055 -97 c25 -60 50 -109 56 -109 5 0 20 26 32 59 60 147 70 165 100 161 18
-2 26 -8 24 -18 -2 -8 -45 -113 -95 -232 l-92 -218 -32 0 c-18 0 -33 2 -33 5
0 3 13 35 30 72 l30 66 -65 153 c-36 85 -65 158 -65 164 0 7 14 10 32 8 30 -3
34 -8 78 -111z m622 -824 c-327 -2 -858 -2 -1180 0 -323 1 -56 2 593 2 649 0
913 -1 587 -2z m-2616 -27 c20 -29 21 -618 0 -635 -19 -16 -1525 -16 -1540 -1
-7 7 -12 118 -14 315 -3 296 -2 305 18 325 20 20 24 20 771 18 730 -3 751 -4
765 -22z m824 -38 c-10 -79 -5 -587 6 -598 6 -6 518 -10 1349 -11 1289 -1
1339 0 1353 18 10 12 13 13 10 3 -12 -40 -2 -40 -1377 -40 -1218 0 -1326 1
-1343 17 -17 15 -18 39 -18 328 0 228 3 314 12 323 7 7 13 12 13 12 1 0 -1
-24 -5 -52z m2717 -420 c-1 -84 -3 -16 -3 152 0 168 2 236 3 153 2 -84 2 -222
0 -305z m-2417 239 c0 -2 44 -123 55 -149 10 -26 -21 -23 -35 2 -7 14 -21 20
-44 20 -25 0 -35 -5 -39 -20 -5 -18 -37 -29 -37 -13 0 5 12 43 26 85 23 69 29
78 50 78 13 0 24 -1 24 -3z m1178 -9 c18 -18 14 -56 -7 -70 -19 -11 -19 -13 5
-47 21 -31 22 -36 8 -39 -9 -2 -29 11 -46 32 -38 47 -58 47 -58 1 0 -24 -5
-35 -15 -35 -12 0 -15 16 -15 85 l0 85 58 0 c32 0 63 -5 70 -12z m576 3 c3 -5
0 -11 -8 -14 -15 -6 -26 1 -26 15 0 11 27 10 34 -1z m442 -16 c15 -23 14 -26
-18 -64 -18 -23 -36 -41 -40 -41 -15 0 -8 27 12 53 28 35 26 57 -4 57 -14 0
-28 -5 -32 -11 -4 -8 -9 -8 -18 1 -15 15 9 30 51 30 24 0 37 -7 49 -25z m-367
-17 c10 -16 10 -23 2 -26 -14 -5 -15 -82 -1 -82 6 0 10 -5 10 -11 0 -6 -10 -9
-22 -7 -19 2 -24 11 -29 48 -3 25 -7 50 -9 55 -5 15 11 45 24 45 6 0 17 -10
25 -22z m-1696 -26 c-14 -11 -23 -30 -25 -56 -2 -22 -9 -41 -15 -44 -10 -3
-13 13 -13 57 l0 61 38 0 c37 0 37 -1 15 -18z m133 -7 c21 -32 11 -45 -32 -45
-24 0 -34 -4 -31 -12 2 -8 18 -12 38 -10 32 2 33 2 15 -13 -45 -34 -99 -5 -89
49 10 58 69 77 99 31z m128 -10 c8 -19 17 -35 20 -35 3 0 12 16 20 35 8 19 20
35 25 35 15 0 14 -6 -17 -90 -25 -67 -31 -75 -56 -78 l-27 -3 20 20 21 21 -20
52 c-11 29 -20 59 -20 66 0 24 20 11 34 -23z m207 14 c15 -15 19 -28 14 -47
-10 -40 -24 -52 -60 -52 -39 0 -58 20 -58 62 0 55 63 78 104 37z m77 -32 c3
-39 6 -47 23 -47 16 0 19 7 19 51 0 43 3 50 18 47 14 -3 17 -14 17 -58 l0 -55
-44 -3 c-24 -2 -48 1 -54 7 -10 10 -18 90 -10 104 12 20 28 -4 31 -46z m260
41 c7 -7 12 -33 12 -59 l0 -47 -37 0 c-70 0 -89 48 -27 68 26 9 33 15 25 23
-9 9 -16 8 -30 0 -23 -14 -35 -5 -20 14 14 16 61 17 77 1z m373 -9 c27 -27 20
-43 -22 -47 -44 -4 -58 -18 -28 -27 14 -5 25 -3 27 4 4 13 32 15 32 1 0 -5 -9
-14 -19 -20 -65 -34 -116 38 -69 98 16 19 56 14 79 -9z m127 9 c19 -19 14 -30
-9 -18 -30 17 -49 5 -49 -30 0 -35 19 -47 48 -31 23 12 36 3 21 -16 -14 -16
-53 -17 -80 -3 -25 14 -26 77 -1 96 21 17 54 18 70 2z m98 -9 c-22 -18 -27
-28 -24 -58 2 -27 -1 -36 -12 -36 -11 0 -16 14 -18 58 l-3 57 42 0 42 0 -27
-21z m74 -29 c0 -43 3 -50 19 -50 17 0 20 8 23 48 2 34 7 47 18 47 12 0 15
-13 15 -55 l0 -55 -47 -3 c-39 -2 -49 1 -58 17 -8 16 -9 71 -1 99 1 1 8 2 16
2 11 0 15 -12 15 -50z m140 -10 c0 -47 -3 -60 -15 -60 -12 0 -15 13 -15 60 0
47 3 60 15 60 12 0 15 -13 15 -60z m207 31 c16 -33 9 -41 -33 -41 -19 0 -34
-5 -34 -10 0 -17 29 -23 45 -10 20 17 32 5 15 -15 -15 -18 -61 -20 -78 -3 -19
19 -15 85 6 97 28 17 65 8 79 -18z m96 12 c-15 -10 -23 -26 -23 -43 0 -38 -9
-60 -25 -60 -9 0 -12 17 -10 58 1 31 3 58 4 60 0 1 18 2 39 1 36 0 37 0 15
-16z m107 -93 c0 -5 -7 -10 -15 -10 -8 0 -15 5 -15 10 0 6 7 10 15 10 8 0 15
-4 15 -10z m-2641 -594 c7 -8 8 -17 3 -20 -6 -3 -12 3 -15 14 -6 24 -4 25 12
6z m439 -14 c2 -7 -3 -12 -12 -12 -9 0 -16 7 -16 16 0 17 22 14 28 -4z m-108
-27 c0 -8 -7 -15 -15 -15 -8 0 -15 7 -15 15 0 8 7 15 15 15 8 0 15 -7 15 -15z
m1248 -38 c3 -21 -1 -27 -17 -27 -23 0 -32 18 -19 43 13 25 32 16 36 -16z
m-1552 -104 c-11 -11 -19 6 -11 24 8 17 8 17 12 0 3 -10 2 -21 -1 -24z m-503
-9 c21 -14 36 -31 34 -37 -5 -15 -47 -22 -47 -8 0 5 -12 9 -26 8 -34 -3 -53
25 -35 47 18 22 30 20 74 -10z m844 -40 c-9 -9 -28 6 -21 18 4 6 10 6 17 -1 6
-6 8 -13 4 -17z m-637 -34 c0 -11 -4 -20 -10 -20 -5 0 -10 9 -10 20 0 11 5 20
10 20 6 0 10 -9 10 -20z m160 -166 c11 -12 11 -18 -2 -31 -19 -18 -38 -10 -38
16 0 33 20 40 40 15z m-977 -23 c3 -11 -2 -29 -10 -41 -12 -17 -18 -19 -29 -9
-17 14 -18 56 -1 62 24 10 35 7 40 -12z m897 -122 c-7 -11 -14 -18 -17 -15 -3
3 0 12 7 21 18 21 23 19 10 -6z m1286 -109 c7 0 19 -16 29 -36 14 -30 15 -41
5 -65 -7 -16 -18 -29 -25 -29 -7 0 -22 -16 -34 -36 l-21 -35 -39 22 c-24 13
-49 20 -65 17 -28 -6 -36 6 -36 53 0 43 15 66 48 73 15 4 41 16 57 27 17 10
39 17 50 14 11 -2 25 -5 31 -5z m482 -73 c2 -11 -3 -17 -16 -17 -26 0 -34 11
-20 27 14 17 32 12 36 -10z m-1078 -200 c0 -8 -3 -17 -7 -20 -9 -9 -34 13 -27
24 8 14 34 11 34 -4z m670 -226 c0 -23 -9 -31 -26 -24 -17 6 -18 40 -1 46 17
6 27 -1 27 -22z m-2116 -2 c-7 -11 -34 -12 -34 -1 0 14 11 21 26 15 8 -3 11
-9 8 -14z m1568 -134 c-12 -26 -27 -31 -51 -16 -11 7 -11 13 0 32 7 13 19 29
28 36 23 17 38 -18 23 -52z m-1796 24 c10 -17 -13 -36 -27 -22 -12 12 -4 33
11 33 5 0 12 -5 16 -11z m1639 -68 c0 -8 -4 -16 -10 -18 -16 -5 -38 14 -30 26
9 16 40 9 40 -8z m-275 -7 c0 -8 -5 -12 -10 -9 -6 4 -8 11 -5 16 9 14 15 11
15 -7z m792 -129 c0 -5 -5 -11 -11 -13 -6 -2 -11 4 -11 13 0 9 5 15 11 13 6
-2 11 -8 11 -13z m148 -126 c0 -5 -7 -9 -15 -9 -8 0 -15 7 -15 15 0 9 6 12 15
9 8 -4 15 -10 15 -15z m-1230 -42 c0 -16 -3 -18 -12 -9 -17 17 -19 42 -2 35 8
-3 14 -15 14 -26z m600 -103 c0 -15 -6 -24 -15 -24 -16 0 -19 17 -9 44 9 22
24 10 24 -20z m266 20 c-3 -9 -6 -22 -6 -30 0 -9 -4 -12 -10 -9 -17 10 -12 55
6 55 11 0 14 -5 10 -16z m994 7 c0 -14 -18 -23 -30 -16 -6 4 -8 11 -5 16 8 12
35 12 35 0z m-1910 -85 c0 -14 -4 -28 -10 -31 -6 -4 -10 7 -10 24 0 17 5 31
10 31 6 0 10 -11 10 -24z m915 -56 c4 -6 8 -29 11 -53 7 -72 19 -102 40 -102
33 0 44 -15 44 -60 0 -50 13 -64 39 -41 10 9 25 16 33 16 30 0 48 12 48 32 0
35 39 97 61 98 15 0 16 -29 3 -55 -8 -15 -14 -38 -14 -51 0 -12 -4 -25 -9 -28
-5 -3 -12 -17 -15 -30 -3 -14 -20 -54 -36 -90 -30 -63 -31 -65 -63 -59 -29 4
-37 0 -67 -35 -19 -22 -40 -48 -46 -59 -7 -10 -15 -14 -20 -10 -5 4 -3 16 4
25 28 39 34 67 25 118 -9 49 -8 50 13 46 32 -6 38 14 15 47 -12 16 -21 34 -21
40 0 6 -7 8 -15 5 -11 -5 -15 1 -15 22 0 16 -11 42 -25 58 -14 16 -25 33 -25
38 0 4 -6 7 -12 6 -8 -2 -14 9 -16 25 -2 15 1 27 7 27 6 0 11 13 11 28 0 39
30 67 45 42z m93 -44 c3 -12 -1 -17 -10 -14 -7 3 -15 13 -16 22 -3 12 1 17 10
14 7 -3 15 -13 16 -22z m197 4 c3 -5 -1 -10 -10 -10 -9 0 -13 5 -10 10 3 6 8
10 10 10 2 0 7 -4 10 -10z m-175 -90 c-11 -11 -24 -20 -30 -20 -17 0 -11 28 8
33 36 10 41 6 22 -13z m-1787 -115 c3 -19 17 -50 31 -68 14 -19 26 -42 26 -51
0 -28 82 -122 123 -139 45 -20 48 -29 7 -20 -23 4 -30 2 -30 -10 0 -29 -19
-28 -35 3 -9 16 -24 30 -34 30 -25 0 -45 41 -37 78 5 22 3 31 -9 36 -8 3 -24
26 -35 51 -14 32 -23 43 -35 39 -8 -3 -15 -1 -15 5 0 6 7 11 15 11 13 0 15 7
9 35 -4 21 -2 35 4 35 5 0 12 -16 15 -35z m-10 -156 c15 -22 27 -50 27 -64 0
-18 5 -25 19 -25 14 0 17 -6 13 -25 -4 -21 -10 -25 -41 -25 -62 0 -107 57
-123 154 -2 14 4 22 22 26 38 10 52 2 83 -41z m790 -35 c9 -10 -4 -34 -19 -34
-8 0 -14 6 -14 13 0 22 19 35 33 21z m847 -104 c0 -5 -2 -10 -4 -10 -3 0 -8 5
-11 10 -3 6 -1 10 4 10 6 0 11 -4 11 -10z m-40 -10 c0 -5 -10 -10 -22 -9 -22
0 -22 1 -3 9 11 5 21 9 23 9 1 1 2 -3 2 -9z"/>
<path d="M7900 7719 c-56 -23 -87 -57 -105 -114 -20 -65 -22 -167 -5 -222 39
-122 213 -170 304 -85 95 89 98 294 7 386 -36 36 -43 39 -107 42 -38 2 -80 -1
-94 -7z"/>
<path d="M8490 7640 l0 -80 63 0 c100 0 144 39 129 116 -6 33 -36 44 -123 44
l-69 0 0 -80z"/>
<path d="M8492 7374 l3 -109 75 2 c120 4 160 32 160 116 0 34 -6 49 -25 67
-22 21 -38 25 -121 28 l-95 4 3 -108z"/>
<path d="M8840 6651 c0 -27 13 -33 35 -17 21 15 12 36 -16 36 -12 0 -19 -7
-19 -19z"/>
<path d="M7800 6601 c0 -35 15 -48 36 -30 22 18 14 53 -13 57 -20 3 -23 -1
-23 -27z"/>
<path d="M7927 6623 c-12 -11 -7 -40 9 -53 21 -18 49 9 39 39 -6 20 -34 28
-48 14z"/>
<path d="M8230 6620 c0 -5 9 -10 20 -10 11 0 20 5 20 10 0 6 -9 10 -20 10 -11
0 -20 -4 -20 -10z"/>
<path d="M8630 6609 c-10 -17 -9 -24 2 -36 22 -21 50 -6 46 26 -4 33 -33 39
-48 10z"/>
<path d="M9054 6616 c-10 -26 0 -51 21 -51 16 0 20 7 20 30 0 33 -30 49 -41
21z"/>
<path d="M9250 6620 c0 -5 9 -10 19 -10 11 0 23 5 26 10 4 6 -5 10 -19 10 -14
0 -26 -4 -26 -10z"/>
<path d="M9654 6616 c-10 -26 0 -51 21 -51 16 0 20 7 20 30 0 33 -30 49 -41
21z"/>
<path d="M9915 6581 c-3 -5 -1 -12 4 -15 12 -8 41 3 41 15 0 12 -37 12 -45 0z"/>
<path d="M10427 6624 c-12 -12 -8 -41 9 -54 22 -19 54 12 38 38 -12 19 -36 27
-47 16z"/>
<path d="M8910 6092 l-35 -17 -3 -107 -3 -107 36 -7 c95 -18 135 19 135 126 0
115 -45 155 -130 112z"/>
<path d="M10478 6212 c-16 -3 -18 -16 -18 -93 l0 -89 58 0 c63 1 82 10 104 55
19 38 7 89 -25 109 -23 15 -90 25 -119 18z"/>
<path d="M7310 6098 c-36 -19 -50 -54 -50 -126 0 -57 3 -67 29 -93 56 -55 129
-30 151 53 13 44 -2 124 -26 149 -25 25 -73 33 -104 17z"/>
<path d="M8305 6096 c-26 -11 -63 -62 -53 -72 2 -1 44 -4 93 -6 l90 -3 -3 25
c-3 31 -45 70 -75 70 -12 -1 -36 -7 -52 -14z"/>
<path d="M9295 6096 c-31 -13 -60 -59 -50 -77 8 -11 155 -12 173 -1 17 12 1
55 -30 76 -27 19 -53 20 -93 2z"/>
<path d="M9906 5970 c-38 -7 -76 -39 -76 -64 0 -6 7 -22 16 -35 15 -20 23 -23
65 -19 66 7 89 29 89 85 0 41 -2 43 -27 42 -16 -1 -46 -5 -67 -9z"/>
<path d="M10865 5969 c-44 -10 -65 -31 -65 -65 0 -40 28 -57 84 -51 62 6 88
33 84 86 -3 32 -6 36 -33 38 -16 1 -48 -3 -70 -8z"/>
<path d="M8379 5185 c-33 -18 -58 -78 -51 -128 7 -62 65 -87 113 -48 18 14 23
31 27 79 4 55 2 63 -21 86 -30 30 -33 30 -68 11z"/>
<path d="M9881 5187 c-25 -12 -68 -74 -59 -83 3 -3 41 11 83 31 46 21 75 39
69 44 -17 16 -69 21 -93 8z"/>
<path d="M8348 4373 c-65 -41 -64 -198 1 -233 34 -18 80 -12 106 14 49 49 46
163 -5 209 -35 31 -63 34 -102 10z"/>
<path d="M9805 4375 c-36 -19 -55 -42 -55 -67 0 -17 8 -19 88 -16 79 3 87 5
90 24 7 52 -68 88 -123 59z"/>
<path d="M6837 3253 c-11 -11 -8 -173 3 -173 6 0 10 18 10 39 0 22 4 42 9 45
18 12 56 -13 75 -48 19 -35 36 -47 36 -25 0 6 -10 24 -21 41 l-21 29 21 21
c27 25 24 49 -9 65 -27 14 -92 17 -103 6z m98 -43 c0 -22 -5 -25 -38 -28 -39
-3 -55 13 -43 44 4 11 17 14 43 12 33 -3 38 -6 38 -28z"/>
<path d="M7460 3166 c0 -51 4 -86 10 -86 6 0 10 25 10 55 0 30 4 55 8 55 5 0
16 -25 26 -55 9 -30 21 -55 25 -55 9 0 26 39 35 80 4 19 2 17 -9 -7 -8 -18
-19 -33 -23 -33 -4 0 -16 28 -27 62 -13 41 -26 64 -38 66 -15 3 -17 -6 -17
-82z"/>
<path d="M7586 3228 c-8 -33 -7 -38 6 -35 7 1 10 -16 9 -55 -2 -36 2 -58 8
-58 7 0 11 31 11 85 0 66 -3 85 -14 85 -7 0 -16 -10 -20 -22z"/>
<path d="M7339 3218 c-1 -13 -1 -41 0 -64 3 -44 -15 -69 -42 -58 -36 13 -31
87 6 99 20 7 20 8 3 12 -26 7 -48 -19 -49 -60 -1 -49 18 -69 62 -65 l36 3 3
78 c2 48 -1 77 -8 77 -5 0 -11 -10 -11 -22z"/>
<path d="M7006 3188 c-9 -12 -16 -33 -16 -45 0 -49 71 -83 100 -48 10 12 10
15 -3 15 -9 0 -19 -4 -22 -10 -9 -14 -21 -12 -39 6 -23 22 -11 34 35 34 32 0
39 4 39 19 0 48 -67 68 -94 29z m72 -15 c2 -9 -8 -13 -32 -13 -28 0 -34 3 -29
16 7 18 54 16 61 -3z"/>
<path d="M7140 3195 c-8 -9 -9 -15 -2 -15 6 0 13 4 16 9 8 12 58 1 53 -13 -2
-6 -19 -16 -37 -22 -43 -14 -59 -37 -41 -58 8 -9 23 -16 34 -16 21 0 21 1 -2
17 -23 15 -23 17 -6 30 37 26 75 7 44 -24 -7 -7 -4 -12 10 -16 19 -5 21 -1 21
47 0 29 -5 57 -12 64 -17 17 -63 15 -78 -3z"/>
<path d="M7662 3198 c-7 -7 -12 -30 -12 -51 0 -43 20 -66 56 -67 48 0 73 79
36 113 -22 20 -63 22 -80 5z m78 -53 c0 -37 -25 -60 -54 -49 -23 9 -22 80 1
93 29 16 53 -5 53 -44z"/>
<path d="M7787 3203 c-11 -10 -8 -96 3 -113 7 -11 10 0 10 37 0 42 4 55 22 67
l22 16 -25 0 c-14 0 -29 -3 -32 -7z"/>
<path d="M7877 3192 c-48 -53 21 -150 71 -100 20 20 13 32 -7 14 -15 -14 -24
-15 -40 -6 -38 20 -26 40 24 40 37 0 45 3 45 18 0 24 -31 52 -57 52 -11 0 -27
-8 -36 -18z m68 -22 c0 -11 -9 -14 -30 -12 -35 4 -39 7 -30 22 10 16 60 8 60
-10z"/>
<path d="M9252 3182 c-10 -30 -10 -32 14 -32 27 0 31 17 11 45 -13 17 -15 16
-25 -13z"/>
<path d="M10381 3221 c-23 -15 -5 -41 29 -41 27 0 31 3 28 23 -3 24 -33 33
-57 18z"/>
<path d="M9497 3173 c-13 -12 -7 -23 13 -23 11 0 20 7 20 15 0 15 -21 21 -33
8z"/>
<path d="M9824 3166 c-10 -25 0 -61 18 -64 24 -5 44 44 27 64 -15 18 -38 18
-45 0z"/>
<path d="M10183 3133 c-7 -2 -13 -11 -13 -20 0 -20 34 -12 38 10 3 17 -3 20
-25 10z"/>
<path d="M10547 3173 c-13 -12 -7 -23 13 -23 11 0 20 7 20 15 0 15 -21 21 -33
8z"/>
<path d="M11187 3174 c-14 -14 -7 -25 13 -22 12 2 21 8 21 13 0 12 -24 18 -34
9z"/>
<path d="M9720 210 c0 -5 5 -10 10 -10 6 0 10 5 10 10 0 6 -4 10 -10 10 -5 0
-10 -4 -10 -10z"/>
</g>
</svg>
