<?xml version="1.0" standalone="no"?>
<!DOCTYPE svg PUBLIC "-//W3C//DTD SVG 20010904//EN"
 "http://www.w3.org/TR/2001/REC-SVG-20010904/DTD/svg10.dtd">
<svg version="1.0" xmlns="http://www.w3.org/2000/svg"
 width="474.000000pt" height="474.000000pt" viewBox="0 0 474.000000 474.000000"
 preserveAspectRatio="xMidYMid meet">

<g transform="translate(0.000000,474.000000) scale(0.100000,-0.100000)"
fill="#000000" stroke="none">
<path d="M2990 2885 c0 -166 -4 -265 -10 -265 -5 0 -34 12 -64 27 l-55 27
-128 -74 c-70 -40 -152 -88 -180 -107 l-53 -33 0 -214 0 -214 158 -90 c219
-126 200 -120 264 -85 124 69 274 157 291 171 16 14 17 51 17 507 0 464 -1
493 -18 508 -10 10 -21 17 -24 17 -3 0 -41 20 -84 45 -44 25 -87 45 -96 45
-17 0 -18 -19 -18 -265z m-60 -528 l55 -33 3 -71 3 -71 -61 -37 c-68 -41 -69
-41 -149 10 l-41 25 0 73 1 72 52 31 c29 18 59 32 67 33 8 0 40 -14 70 -32z"/>
<path d="M805 2643 c-33 -19 -97 -57 -143 -84 -45 -27 -85 -49 -88 -49 -3 0
-19 -9 -35 -21 l-29 -21 2 -271 c3 -315 -7 -295 115 -221 40 24 77 44 81 44 5
0 16 8 25 18 14 15 17 42 17 151 0 127 1 133 25 155 13 12 42 31 65 41 39 17
41 17 80 0 23 -10 52 -29 65 -41 24 -22 25 -27 25 -157 0 -117 2 -136 18 -150
10 -10 21 -17 25 -17 4 0 40 -20 82 -45 120 -71 110 -92 113 219 3 291 2 295
-52 312 -11 4 -48 24 -81 44 -134 82 -220 130 -235 129 -8 0 -42 -17 -75 -36z"/>
<path d="M3805 2652 c-16 -10 -55 -32 -85 -49 -176 -97 -224 -130 -231 -153
-4 -14 -7 -107 -8 -206 -1 -160 1 -184 17 -202 20 -23 333 -202 353 -202 21 1
222 113 226 127 2 6 -41 38 -97 70 -56 32 -135 77 -176 101 l-74 42 0 75 0 74
54 30 c29 17 61 31 71 31 10 0 42 -14 71 -31 l54 -30 0 -60 c0 -73 7 -75 104
-18 132 78 136 82 136 149 0 37 -5 64 -14 73 -25 24 -334 197 -353 197 -10 0
-31 -8 -48 -18z"/>
<path d="M3813 2318 c-28 -17 -33 -26 -33 -58 0 -33 5 -41 36 -59 35 -21 37
-21 68 -3 26 15 32 25 34 59 3 37 0 43 -31 62 -40 25 -34 25 -74 -1z"/>
</g>
</svg>
